<?xml version="1.0" encoding="UTF-8"?>
<svg version="1.1" xmlns="http://www.w3.org/2000/svg" width="64" height="78">
<path d="M0 0 C0.67466309 0.16121338 1.34932617 0.32242676 2.04443359 0.48852539 C6.02144673 1.51486741 9.38772324 2.49414532 12.5625 5.125 C13.05805943 7.93336674 13.21839531 10.13419812 13.15625 12.94140625 C13.15629028 13.71250229 13.15633057 14.48359833 13.15637207 15.27806091 C13.1510095 16.91307705 13.1333949 18.54809188 13.10449219 20.18286133 C13.063051 22.65463542 13.06339004 25.12364413 13.0703125 27.59570312 C13.01575049 40.95891118 11.42336305 50.84602127 2.125 61.0625 C-2.88989697 65.93626479 -8.86647486 69.71997219 -15.4375 72.125 C-24.29179043 71.78575516 -33.50988272 64.45501428 -39.4375 58.125 C-44.96953612 50.79320813 -46.74677665 44.08413965 -46.6328125 35.0078125 C-46.6299826 34.15065643 -46.62715271 33.29350037 -46.62423706 32.41036987 C-46.61309999 29.69010068 -46.5880076 26.97016859 -46.5625 24.25 C-46.55246182 22.39844228 -46.54333744 20.54687936 -46.53515625 18.6953125 C-46.51318188 14.1717464 -46.478697 9.64843023 -46.4375 5.125 C-30.11566918 -1.92702255 -17.31322167 -4.14611281 0 0 Z M-32.4375 36.125 C-34.92637372 40.80993876 -34.29437773 44.0694214 -33.4375 49.125 C-32.60605469 49.32996094 -31.77460938 49.53492188 -30.91796875 49.74609375 C-29.83128906 50.01550781 -28.74460937 50.28492188 -27.625 50.5625 C-26.00658203 50.96275391 -26.00658203 50.96275391 -24.35546875 51.37109375 C-22.3634157 51.88577412 -20.38938476 52.47437175 -18.4375 53.125 C-18.1075 49.165 -17.7775 45.205 -17.4375 41.125 C-22.60504623 38.31458012 -26.57866461 36.61323628 -32.4375 36.125 Z M-15.4375 41.125 C-15.4375 44.755 -15.4375 48.385 -15.4375 52.125 C-11.63782431 52.125 -8.83712363 51.57707573 -5.1875 50.625 C-4.10984375 50.3465625 -3.0321875 50.068125 -1.921875 49.78125 C-1.10203125 49.5646875 -0.2821875 49.348125 0.5625 49.125 C0.58937279 47.31257948 0.60883715 45.50004767 0.625 43.6875 C0.64240234 42.17349609 0.64240234 42.17349609 0.66015625 40.62890625 C0.84862676 38.18478933 0.84862676 38.18478933 -0.4375 37.125 C-6.29834538 36.39239433 -10.28099049 38.62487418 -15.4375 41.125 Z " fill="#1E3B61" transform="translate(48.4375,3.875)"/>
<path d="M0 0 C1.19882812 0.00483398 1.19882812 0.00483398 2.421875 0.00976562 C3.246875 0.01814453 4.071875 0.02652344 4.921875 0.03515625 C5.76234375 0.03966797 6.6028125 0.04417969 7.46875 0.04882812 C9.53648901 0.06057664 11.60419124 0.07851103 13.671875 0.09765625 C13.671875 0.75765625 13.671875 1.41765625 13.671875 2.09765625 C15.651875 2.42765625 17.631875 2.75765625 19.671875 3.09765625 C19.671875 4.08765625 19.671875 5.07765625 19.671875 6.09765625 C20.331875 6.09765625 20.991875 6.09765625 21.671875 6.09765625 C24.2111978 9.5159754 25.0354948 11.85542523 24.671875 16.09765625 C24.094375 15.33453125 23.516875 14.57140625 22.921875 13.78515625 C20.95484407 11.43564708 19.18710756 9.8044212 16.671875 8.09765625 C17.166875 8.55140625 17.661875 9.00515625 18.171875 9.47265625 C19.671875 11.09765625 19.671875 11.09765625 19.671875 13.09765625 C20.166875 13.53078125 20.661875 13.96390625 21.171875 14.41015625 C22.671875 16.09765625 22.671875 16.09765625 22.859375 18.78515625 C22.7665625 19.92984375 22.7665625 19.92984375 22.671875 21.09765625 C21.351875 21.09765625 20.031875 21.09765625 18.671875 21.09765625 C18.176875 17.63265625 18.176875 17.63265625 17.671875 14.09765625 C17.671875 15.41765625 17.671875 16.73765625 17.671875 18.09765625 C17.671875 19.08765625 17.671875 20.07765625 17.671875 21.09765625 C15.031875 21.09765625 12.391875 21.09765625 9.671875 21.09765625 C9.671875 16.47765625 9.671875 11.85765625 9.671875 7.09765625 C3.35458321 7.09765625 2.97372758 7.27378729 -1.328125 11.09765625 C-1.988125 11.09765625 -2.648125 11.09765625 -3.328125 11.09765625 C-5.29137855 17.11012025 -6.65348794 22.28126 -3.828125 28.28515625 C-3.333125 29.21328125 -2.838125 30.14140625 -2.328125 31.09765625 C-2.328125 32.41765625 -2.328125 33.73765625 -2.328125 35.09765625 C-1.668125 35.09765625 -1.008125 35.09765625 -0.328125 35.09765625 C-0.328125 35.75765625 -0.328125 36.41765625 -0.328125 37.09765625 C-2.968125 36.76765625 -5.608125 36.43765625 -8.328125 36.09765625 C-7.998125 41.70765625 -7.668125 47.31765625 -7.328125 53.09765625 C-8.318125 53.09765625 -9.308125 53.09765625 -10.328125 53.09765625 C-10.328125 48.14765625 -10.328125 43.19765625 -10.328125 38.09765625 C-10.988125 38.09765625 -11.648125 38.09765625 -12.328125 38.09765625 C-12.328125 42.38765625 -12.328125 46.67765625 -12.328125 51.09765625 C-13.648125 50.43765625 -14.968125 49.77765625 -16.328125 49.09765625 C-16.328125 48.43765625 -16.328125 47.77765625 -16.328125 47.09765625 C-16.988125 47.09765625 -17.648125 47.09765625 -18.328125 47.09765625 C-18.328125 46.43765625 -18.328125 45.77765625 -18.328125 45.09765625 C-18.988125 45.09765625 -19.648125 45.09765625 -20.328125 45.09765625 C-20.328125 32.22765625 -20.328125 19.35765625 -20.328125 6.09765625 C-5.59778792 -0.0399842 -5.59778792 -0.0399842 0 0 Z " fill="#0E2F57" transform="translate(22.328125,2.90234375)"/>
<path d="M0 0 C0.66 0 1.32 0 2 0 C2 4.95 2 9.9 2 15 C2.99 15 3.98 15 5 15 C4.67 14.34 4.34 13.68 4 13 C3.93049459 11.45976004 3.91547643 9.91665012 3.9375 8.375 C3.94652344 7.55773438 3.95554687 6.74046875 3.96484375 5.8984375 C3.97644531 5.27195312 3.98804688 4.64546875 4 4 C4.33 4 4.66 4 5 4 C5 6.64 5 9.28 5 12 C5.87011719 12.05607422 5.87011719 12.05607422 6.7578125 12.11328125 C11.81678864 12.53903667 15.54279158 13.37138991 20 16 C20.05389087 14.04196493 20.09274217 12.08351091 20.125 10.125 C20.14820312 9.03445312 20.17140625 7.94390625 20.1953125 6.8203125 C20.30060534 3.8628949 20.30060534 3.8628949 18 2 C18.99 1.67 19.98 1.34 21 1 C22.48828125 2.14453125 22.48828125 2.14453125 24 4 C24.29296875 6.69921875 24.29296875 6.69921875 24.1875 9.6875 C24.16042969 10.68136719 24.13335937 11.67523438 24.10546875 12.69921875 C24.07066406 13.45847656 24.03585938 14.21773437 24 15 C24.66 15.33 25.32 15.66 26 16 C26 16.66 26 17.32 26 18 C26.66386719 17.7834375 27.32773437 17.566875 28.01171875 17.34375 C29.33623047 16.92609375 29.33623047 16.92609375 30.6875 16.5 C31.55761719 16.2215625 32.42773438 15.943125 33.32421875 15.65625 C36 15 36 15 41 15 C41 10.05 41 5.1 41 0 C41.66 0 42.32 0 43 0 C43 3.96 43 7.92 43 12 C44.65 12 46.3 12 48 12 C45.75206542 20.28249694 39.76946538 25.68998506 32.66015625 30.234375 C24.24995444 35.05121452 24.24995444 35.05121452 19.94921875 34.875 C9.96765491 31.91358238 0.18466728 23.92139995 -5.06640625 14.96875 C-6.30567397 12.35539881 -6.7845457 9.87272402 -7 7 C-6.67 7.66 -6.34 8.32 -6 9 C-5.34 9 -4.68 9 -4 9 C-4 9.66 -4 10.32 -4 11 C-3.34 11 -2.68 11 -2 11 C-0.98617037 7.3791799 -0.50102309 3.72188582 0 0 Z " fill="#0E2F57" transform="translate(10,41)"/>
<path d="M0 0 C-0.99 0.495 -0.99 0.495 -2 1 C-1.87431641 1.88751953 -1.87431641 1.88751953 -1.74609375 2.79296875 C-1.19110576 7.09939457 -0.76773348 10.75552644 -2 15 C0.64 15 3.28 15 6 15 C5.67 13.02 5.34 11.04 5 9 C4.01 8.67 3.02 8.34 2 8 C3.32 8 4.64 8 6 8 C6.33 10.31 6.66 12.62 7 15 C8.32 15 9.64 15 11 15 C10.67 12.69 10.34 10.38 10 8 C9.01 7.67 8.02 7.34 7 7 C7.33 6.34 7.66 5.68 8 5 C7.01 4.67 6.02 4.34 5 4 C5 3.34 5 2.68 5 2 C9.27683498 3.52744106 11.00037651 6.00075302 13 10 C13.89185653 16.03718267 13.31008468 20.75903259 10 26 C9.01 26 8.02 26 7 26 C7.33 25.34 7.66 24.68 8 24 C6.68 24.33 5.36 24.66 4 25 C4 24.34 4 23.68 4 23 C3.34 22.67 2.68 22.34 2 22 C4.60582371 21.06934867 5.64198224 20.85082593 8.25 21.9375 C9.11625 22.4634375 9.11625 22.4634375 10 23 C10.99 19.535 10.99 19.535 12 16 C10.35 16 8.7 16 7 16 C6.67 17.32 6.34 18.64 6 20 C6 18.68 6 17.36 6 16 C3.36 16 0.72 16 -2 16 C-1.814375 16.825 -1.62875 17.65 -1.4375 18.5 C-0.9225916 22.61926719 -1.36507072 25.90823355 -2 30 C-1.34 30.33 -0.68 30.66 0 31 C-6.625 31.125 -6.625 31.125 -10 30 C-10 30.66 -10 31.32 -10 32 C-8.68 32.33 -7.36 32.66 -6 33 C-9.24167823 34.62083911 -12.27595803 33.11535333 -15.6875 32.27734375 C-16.8321875 32.14005859 -16.8321875 32.14005859 -18 32 C-18.66 32.66 -19.32 33.32 -20 34 C-20 32.68 -20 31.36 -20 30 C-14.25 29.875 -14.25 29.875 -12 31 C-12 30.34 -12 29.68 -12 29 C-12.66 29 -13.32 29 -14 29 C-17.29144783 21.69710013 -19.27430818 16.34763969 -16.9375 8.375 C-12.79616735 1.16106571 -8.09604867 -0.71017971 0 0 Z " fill="#89635E" transform="translate(34,9)"/>
<path d="M0 0 C0.66 0 1.32 0 2 0 C2.68627994 8.23535926 0.95262714 13.50346786 -4.375 19.8125 C-7.23642211 22.19701842 -9.46197375 23.79707107 -13 25 C-16.6875 24.25 -16.6875 24.25 -20 23 C-20.99 22.67 -21.98 22.34 -23 22 C-23 21.34 -23 20.68 -23 20 C-20.36 20 -17.72 20 -15 20 C-15 15.38 -15 10.76 -15 6 C-10.38 6 -5.76 6 -1 6 C-2 11 -2 11 -3 13 C-5.475 12.505 -5.475 12.505 -8 12 C-8 12.66 -8 13.32 -8 14 C-7.01 14 -6.02 14 -5 14 C-4.67 14.66 -4.34 15.32 -4 16 C-0.82307843 10.75117306 -0.34302035 5.98511371 0 0 Z " fill="#7A534A" transform="translate(47,19)"/>
<path d="M0 0 C1.32 0.33 2.64 0.66 4 1 C3.34 1 2.68 1 2 1 C2.08378906 1.59167969 2.16757812 2.18335938 2.25390625 2.79296875 C2.80889424 7.09939457 3.23226652 10.75552644 2 15 C4.64 15 7.28 15 10 15 C9.67 13.02 9.34 11.04 9 9 C8.01 8.67 7.02 8.34 6 8 C7.32 8 8.64 8 10 8 C10.33 10.31 10.66 12.62 11 15 C12.32 15 13.64 15 15 15 C14.67 12.69 14.34 10.38 14 8 C13.01 7.67 12.02 7.34 11 7 C11.33 6.34 11.66 5.68 12 5 C11.01 4.67 10.02 4.34 9 4 C9 3.34 9 2.68 9 2 C13.27683498 3.52744106 15.00037651 6.00075302 17 10 C17.89185653 16.03718267 17.31008468 20.75903259 14 26 C13.01 26 12.02 26 11 26 C11.33 25.34 11.66 24.68 12 24 C10.68 24.33 9.36 24.66 8 25 C8 24.34 8 23.68 8 23 C7.34 22.67 6.68 22.34 6 22 C8.60582371 21.06934867 9.64198224 20.85082593 12.25 21.9375 C13.11625 22.4634375 13.11625 22.4634375 14 23 C14.99 19.535 14.99 19.535 16 16 C14.35 16 12.7 16 11 16 C10.67 17.32 10.34 18.64 10 20 C10 18.68 10 17.36 10 16 C7.36 16 4.72 16 2 16 C2.185625 16.825 2.37125 17.65 2.5625 18.5 C3.0774084 22.61926719 2.63492928 25.90823355 2 30 C2.66 30.33 3.32 30.66 4 31 C0.625 31.125 0.625 31.125 -3 31 C-3.66 30.34 -4.32 29.68 -5 29 C-4.01 28.67 -3.02 28.34 -2 28 C-1.34 28.33 -0.68 28.66 0 29 C0.33 24.71 0.66 20.42 1 16 C-0.381875 16.185625 -1.76375 16.37125 -3.1875 16.5625 C-6.69618729 16.96096291 -9.56622781 16.9969016 -13 16 C-13 15.67 -13 15.34 -13 15 C-8.38 15 -3.76 15 1 15 C0.67 13.02 0.34 11.04 0 9 C-0.0620775 7.37605252 -0.08712041 5.74994703 -0.0625 4.125 C-0.05347656 3.34382812 -0.04445313 2.56265625 -0.03515625 1.7578125 C-0.02355469 1.17773438 -0.01195312 0.59765625 0 0 Z " fill="#A17366" transform="translate(30,9)"/>
<path d="M0 0 C2.05078125 0.03255208 4.1015625 0.06510417 6.15234375 0.09765625 C6.15234375 4.71765625 6.15234375 9.33765625 6.15234375 14.09765625 C4.50234375 13.76765625 2.85234375 13.43765625 1.15234375 13.09765625 C0.16234375 14.58265625 0.16234375 14.58265625 -0.84765625 16.09765625 C0.47234375 16.42765625 1.79234375 16.75765625 3.15234375 17.09765625 C-0.08933448 18.71849536 -3.12361428 17.21300958 -6.53515625 16.375 C-7.29828125 16.28347656 -8.06140625 16.19195312 -8.84765625 16.09765625 C-9.50765625 16.75765625 -10.16765625 17.41765625 -10.84765625 18.09765625 C-10.84765625 16.77765625 -10.84765625 15.45765625 -10.84765625 14.09765625 C-5.09765625 13.97265625 -5.09765625 13.97265625 -2.84765625 15.09765625 C-2.84765625 14.43765625 -2.84765625 13.77765625 -2.84765625 13.09765625 C-3.50765625 13.09765625 -4.16765625 13.09765625 -4.84765625 13.09765625 C-5.17765625 11.11765625 -5.50765625 9.13765625 -5.84765625 7.09765625 C-4.85765625 6.76765625 -3.86765625 6.43765625 -2.84765625 6.09765625 C-2.86828125 5.29328125 -2.88890625 4.48890625 -2.91015625 3.66015625 C-2.82452531 0.14928781 -2.82452531 0.14928781 0 0 Z " fill="#8A7477" transform="translate(24.84765625,24.90234375)"/>
<path d="M0 0 C0.66 0 1.32 0 2 0 C2 3.96 2 7.92 2 12 C3.65 12 5.3 12 7 12 C5.69425949 17.11790246 3.68383644 19.7614885 -0.125 23.375 C-1.03507812 24.24898437 -1.94515625 25.12296875 -2.8828125 26.0234375 C-3.58148438 26.67570312 -4.28015625 27.32796875 -5 28 C-5.66 26.68 -6.32 25.36 -7 24 C-6.01 24 -5.02 24 -4 24 C-4 23.01 -4 22.02 -4 21 C-4.66 20.34 -5.32 19.68 -6 19 C-8.67813399 18.97792512 -8.67813399 18.97792512 -11.625 19.375 C-12.62789062 19.48585938 -13.63078125 19.59671875 -14.6640625 19.7109375 C-15.43492188 19.80632813 -16.20578125 19.90171875 -17 20 C-16.67 19.01 -16.34 18.02 -16 17 C-16.66 17 -17.32 17 -18 17 C-17.67 16.34 -17.34 15.68 -17 15 C-16.34 15.33 -15.68 15.66 -15 16 C-15 16.66 -15 17.32 -15 18 C-14.33613281 17.7834375 -13.67226563 17.566875 -12.98828125 17.34375 C-12.10527344 17.0653125 -11.22226562 16.786875 -10.3125 16.5 C-9.44238281 16.2215625 -8.57226562 15.943125 -7.67578125 15.65625 C-5 15 -5 15 0 15 C0 10.05 0 5.1 0 0 Z " fill="#1C3354" transform="translate(51,41)"/>
<path d="M0 0 C0.33 0.99 0.66 1.98 1 3 C1.66 3.33 2.32 3.66 3 4 C3 4.66 3 5.32 3 6 C3.495 6.433125 3.99 6.86625 4.5 7.3125 C6 9 6 9 6.1875 11.6875 C6.125625 12.450625 6.06375 13.21375 6 14 C4.68 14 3.36 14 2 14 C1.67 11.69 1.34 9.38 1 7 C1 8.32 1 9.64 1 11 C1 11.99 1 12.98 1 14 C-1.64 14 -4.28 14 -7 14 C-7 9.38 -7 4.76 -7 0 C-4.3333581 -1.33332095 -2.83319697 -0.67102033 0 0 Z " fill="#7D5349" transform="translate(39,10)"/>
<path d="M0 0 C0.66 0 1.32 0 2 0 C2 4.95 2 9.9 2 15 C2.99 15 3.98 15 5 15 C4.67 14.34 4.34 13.68 4 13 C3.93049459 11.45976004 3.91547643 9.91665012 3.9375 8.375 C3.94652344 7.55773438 3.95554687 6.74046875 3.96484375 5.8984375 C3.97644531 5.27195312 3.98804688 4.64546875 4 4 C4.33 4 4.66 4 5 4 C5 6.64 5 9.28 5 12 C5.87011719 12.05607422 5.87011719 12.05607422 6.7578125 12.11328125 C11.81678864 12.53903667 15.54279158 13.37138991 20 16 C20 13.36 20 10.72 20 8 C20.33 8 20.66 8 21 8 C21.05416188 9.60379341 21.09286638 11.20811406 21.125 12.8125 C21.14820312 13.70582031 21.17140625 14.59914063 21.1953125 15.51953125 C21 18 21 18 19 21 C18.49984375 20.69320312 17.9996875 20.38640625 17.484375 20.0703125 C14.15866032 18.63753605 10.81248976 18.28629306 7.25 17.875 C4.8575 17.58625 2.465 17.2975 0 17 C0 11.39 0 5.78 0 0 Z " fill="#A3B1C3" transform="translate(10,41)"/>
<path d="M0 0 C0.89203125 0.00902344 1.7840625 0.01804688 2.703125 0.02734375 C3.37859375 0.03894531 4.0540625 0.05054688 4.75 0.0625 C4.75 0.7225 4.75 1.3825 4.75 2.0625 C7.72 2.5575 7.72 2.5575 10.75 3.0625 C10.75 4.0525 10.75 5.0425 10.75 6.0625 C11.41 6.0625 12.07 6.0625 12.75 6.0625 C15.2893228 9.48081915 16.1136198 11.82026898 15.75 16.0625 C15.1725 15.299375 14.595 14.53625 14 13.75 C10.00535113 8.97861385 7.20533683 7.68169379 1 6.875 C-0.75570313 6.63716797 -0.75570313 6.63716797 -2.546875 6.39453125 C-3.43890625 6.28496094 -4.3309375 6.17539063 -5.25 6.0625 C-5.25 5.0725 -5.25 4.0825 -5.25 3.0625 C-6.57 2.4025 -7.89 1.7425 -9.25 1.0625 C-6.09493858 0.12630187 -3.28413498 -0.0432123 0 0 Z " fill="#09284D" transform="translate(31.25,2.9375)"/>
<path d="M0 0 C0.66 0 1.32 0 2 0 C2.68627994 8.23535926 0.95262714 13.50346786 -4.375 19.8125 C-7.23642211 22.19701842 -9.46197375 23.79707107 -13 25 C-16.6875 24.25 -16.6875 24.25 -20 23 C-20.99 22.67 -21.98 22.34 -23 22 C-23 21.34 -23 20.68 -23 20 C-21.69675781 20.06960937 -21.69675781 20.06960937 -20.3671875 20.140625 C-13.1717484 20.40953984 -13.1717484 20.40953984 -6.375 18.375 C-0.94442304 12.94442304 -0.42104007 7.34642321 0 0 Z " fill="#28293D" transform="translate(47,19)"/>
<path d="M0 0 C4.36597937 0.88061155 8.68602426 1.89367396 13 3 C12.360625 3.309375 11.72125 3.61875 11.0625 3.9375 C9.06389179 4.8345163 9.06389179 4.8345163 8 6 C7.34 6 6.68 6 6 6 C6.33 7.65 6.66 9.3 7 11 C6.01 10.34 5.02 9.68 4 9 C4 8.34 4 7.68 4 7 C3.01 7.33 2.02 7.66 1 8 C1.33 6.68 1.66 5.36 2 4 C-0.97 3.505 -0.97 3.505 -4 3 C-4 2.34 -4 1.68 -4 1 C-7.63 1 -11.26 1 -15 1 C-10.22982047 -2.18011969 -5.50655783 -0.79023495 0 0 Z " fill="#566C8A" transform="translate(40,2)"/>
<path d="M0 0 C0.6875 1.8125 0.6875 1.8125 1 4 C-0.64504011 6.46756016 -1.80299352 6.94960299 -4.6875 7.6875 C-5.8321875 7.8421875 -5.8321875 7.8421875 -7 8 C-7.33 7.01 -7.66 6.02 -8 5 C-10.97 5 -13.94 5 -17 5 C-17 4.34 -17 3.68 -17 3 C-11.10261508 0.70657253 -6.33393082 -0.34548714 0 0 Z " fill="#052A54" transform="translate(26,3)"/>
<path d="M0 0 C4.62 0 9.24 0 14 0 C13 5 13 5 12 7 C6.06 6.01 6.06 6.01 0 5 C0 3.35 0 1.7 0 0 Z " fill="#4B3639" transform="translate(32,25)"/>
<path d="M0 0 C0.66 0 1.32 0 2 0 C2 5.61 2 11.22 2 17 C-0.206875 17.309375 -2.41375 17.61875 -4.6875 17.9375 C-8.82113885 18.51698208 -12.91630459 19.13328836 -17 20 C-16.67 19.01 -16.34 18.02 -16 17 C-16.66 17 -17.32 17 -18 17 C-17.67 16.34 -17.34 15.68 -17 15 C-16.34 15.33 -15.68 15.66 -15 16 C-15 16.66 -15 17.32 -15 18 C-14.33613281 17.7834375 -13.67226563 17.566875 -12.98828125 17.34375 C-12.10527344 17.0653125 -11.22226562 16.786875 -10.3125 16.5 C-9.44238281 16.2215625 -8.57226562 15.943125 -7.67578125 15.65625 C-5 15 -5 15 0 15 C0 10.05 0 5.1 0 0 Z " fill="#A6B8CD" transform="translate(51,41)"/>
<path d="M0 0 C0.66 0 1.32 0 2 0 C1.96519531 0.58007812 1.93039063 1.16015625 1.89453125 1.7578125 C1.70944895 7.0987588 2.34739877 10.24742279 5 15 C5 16.32 5 17.64 5 19 C5.66 19 6.32 19 7 19 C7 19.66 7 20.32 7 21 C0.84765625 20.4140625 0.84765625 20.4140625 -1 20 C-1.33 19.34 -1.66 18.68 -2 18 C-1.01 18 -0.02 18 1 18 C0.7525 16.6078125 0.7525 16.6078125 0.5 15.1875 C-0.23700282 10.14266379 -0.08276815 5.08564289 0 0 Z " fill="#1E2947" transform="translate(15,19)"/>
<path d="M0 0 C0.33 0.66 0.66 1.32 1 2 C1.66 2 2.32 2 3 2 C3 2.66 3 3.32 3 4 C3.66 4 4.32 4 5 4 C5.33 2.68 5.66 1.36 6 0 C6.66 4.29 7.32 8.58 8 13 C8.66 13 9.32 13 10 13 C10 13.99 10 14.98 10 16 C5.15523301 13.97532126 3.26073368 10.58945936 1 6 C0.1875 2.5 0.1875 2.5 0 0 Z " fill="#40546F" transform="translate(3,48)"/>
<path d="M0 0 C2.06242617 -0.02717692 4.12495703 -0.0464758 6.1875 -0.0625 C7.33605469 -0.07410156 8.48460937 -0.08570313 9.66796875 -0.09765625 C12.62325442 -0.01104178 15.1658234 0.17505217 18 1 C20.68448204 4.33246046 21.36325349 6.76204266 21 11 C20.4225 10.236875 19.845 9.47375 19.25 8.6875 C15.25535113 3.91611385 12.45533683 2.61919379 6.25 1.8125 C5.07953125 1.65394531 3.9090625 1.49539063 2.703125 1.33203125 C1.81109375 1.22246094 0.9190625 1.11289063 0 1 C0 0.67 0 0.34 0 0 Z " fill="#1F263E" transform="translate(26,8)"/>
<path d="M0 0 C1.43655854 -0.08131463 2.8744483 -0.13933559 4.3125 -0.1875 C5.51326172 -0.23970703 5.51326172 -0.23970703 6.73828125 -0.29296875 C9.47851584 0.06198392 10.29171079 0.89366282 12 3 C10.35 3 8.7 3 7 3 C6.34 4.65 5.68 6.3 5 8 C3 7 3 7 1 4 C0.375 1.8125 0.375 1.8125 0 0 Z " fill="#122C50" transform="translate(10,58)"/>
<path d="M0 0 C0.33 0 0.66 0 1 0 C1.05416188 1.60379341 1.09286638 3.20811406 1.125 4.8125 C1.14820313 5.70582031 1.17140625 6.59914063 1.1953125 7.51953125 C1 10 1 10 -1 13 C-1.53625 12.690625 -2.0725 12.38125 -2.625 12.0625 C-5.3984957 10.82172561 -8.00042837 10.4090325 -11 10 C-9.4375 8.4375 -9.4375 8.4375 -7 7 C-3.25 7.3125 -3.25 7.3125 0 8 C0 5.36 0 2.72 0 0 Z " fill="#6F7F95" transform="translate(30,49)"/>
<path d="M0 0 C0.66 0 1.32 0 2 0 C2 0.66 2 1.32 2 2 C2.66 2 3.32 2 4 2 C4 4.31 4 6.62 4 9 C4.66 9 5.32 9 6 9 C6 10.32 6 11.64 6 13 C4.35 13 2.7 13 1 13 C0.67 8.71 0.34 4.42 0 0 Z " fill="#0B2748" transform="translate(52,40)"/>
<path d="M0 0 C2.31 0 4.62 0 7 0 C7.33 1.65 7.66 3.3 8 5 C5.36 5 2.72 5 0 5 C0 3.35 0 1.7 0 0 Z " fill="#2A293A" transform="translate(32,19)"/>
<path d="M0 0 C2.31 0 4.62 0 7 0 C7 1.65 7 3.3 7 5 C4.69 5 2.38 5 0 5 C0 3.35 0 1.7 0 0 Z " fill="#332A3B" transform="translate(24,25)"/>
<path d="M0 0 C2.31 0 4.62 0 7 0 C7 1.65 7 3.3 7 5 C4.69 5 2.38 5 0 5 C0 3.35 0 1.7 0 0 Z " fill="#242638" transform="translate(24,19)"/>
<path d="M0 0 C0.33 0 0.66 0 1 0 C1.33 5.61 1.66 11.22 2 17 C1.01 17 0.02 17 -1 17 C-1.02691685 14.54159395 -1.04679802 12.08348118 -1.0625 9.625 C-1.07087891 8.92632812 -1.07925781 8.22765625 -1.08789062 7.5078125 C-1.11328125 2.2265625 -1.11328125 2.2265625 0 0 Z " fill="#273651" transform="translate(13,39)"/>
<path d="M0 0 C-3.50764693 1.96428228 -7.14694189 2.90951185 -11 4 C-11.33 4.33 -11.66 4.66 -12 5 C-13.66617115 5.04063832 -15.33388095 5.042721 -17 5 C-17 4.34 -17 3.68 -17 3 C-11.10261508 0.70657253 -6.33393082 -0.34548714 0 0 Z " fill="#33435F" transform="translate(26,3)"/>
<path d="M0 0 C0.33 0.66 0.66 1.32 1 2 C3.06102235 2.39138678 3.06102235 2.39138678 5.4375 2.5 C9.7787307 2.7787307 9.7787307 2.7787307 12 5 C9.07406105 5.85637238 6.91825712 6.38673104 4.04296875 5.17578125 C2.32488268 4.17852152 0.65798613 3.09427085 -1 2 C-0.67 1.34 -0.34 0.68 0 0 Z " fill="#50657C" transform="translate(23,70)"/>
<path d="M0 0 C-0.33 0.66 -0.66 1.32 -1 2 C-3.28515625 2.6328125 -3.28515625 2.6328125 -6.0625 3.125 C-6.98160156 3.29257812 -7.90070312 3.46015625 -8.84765625 3.6328125 C-9.91306641 3.81457031 -9.91306641 3.81457031 -11 4 C-10.67 2.68 -10.34 1.36 -10 0 C-6.33694766 -0.74926071 -3.57644848 -1.2380014 0 0 Z " fill="#656E7C" transform="translate(47,55)"/>
<path d="M0 0 C1.98 0 3.96 0 6 0 C6 2.31 6 4.62 6 7 C2.58841744 5.86280581 1.88145399 4.95657056 0 2 C0 1.34 0 0.68 0 0 Z " fill="#382833" transform="translate(25,32)"/>
<path d="M0 0 C4.21708244 1.50610087 5.94467452 4.11771853 8 8 C7.75 10.875 7.75 10.875 7 13 C6.67 13 6.34 13 6 13 C5.67 10.69 5.34 8.38 5 6 C4.01 5.67 3.02 5.34 2 5 C2.33 4.34 2.66 3.68 3 3 C2.01 2.67 1.02 2.34 0 2 C0 1.34 0 0.68 0 0 Z " fill="#896460" transform="translate(39,11)"/>
<path d="M0 0 C0 1.98 0 3.96 0 6 C-1.98 6 -3.96 6 -6 6 C-3.84615385 0 -3.84615385 0 0 0 Z " fill="#39252E" transform="translate(31,11)"/>
<path d="M0 0 C1.984375 1.05078125 1.984375 1.05078125 4 3 C4.390625 6.35546875 4.390625 6.35546875 4.25 10.1875 C4.21390625 11.45980469 4.1778125 12.73210938 4.140625 14.04296875 C4.09421875 15.01878906 4.0478125 15.99460937 4 17 C3.34 17 2.68 17 2 17 C1.96261719 16.09636719 1.92523437 15.19273438 1.88671875 14.26171875 C1.82097656 13.08222656 1.75523438 11.90273438 1.6875 10.6875 C1.62949219 9.51574219 1.57148438 8.34398437 1.51171875 7.13671875 C0.98395232 3.9016314 0.57619276 2.91315119 -2 1 C-1.34 0.67 -0.68 0.34 0 0 Z " fill="#455063" transform="translate(30,42)"/>
<path d="M0 0 C1.32 0 2.64 0 4 0 C5.33333333 1.33333333 6.66666667 2.66666667 8 4 C6.02 4.99 6.02 4.99 4 6 C2 4.6875 2 4.6875 0 3 C0 2.01 0 1.02 0 0 Z " fill="#764B46" transform="translate(20,33)"/>
<path d="M0 0 C0.99 0.33 1.98 0.66 3 1 C3 2.98 3 4.96 3 7 C1.68 7 0.36 7 -1 7 C-0.67 4.69 -0.34 2.38 0 0 Z " fill="#2F2837" transform="translate(19,17)"/>
<path d="M0 0 C0.66 0 1.32 0 2 0 C2.33 2.31 2.66 4.62 3 7 C1.68 7 0.36 7 -1 7 C-1.04254356 5.00045254 -1.04080783 2.99958364 -1 1 C-0.67 0.67 -0.34 0.34 0 0 Z " fill="#2D2330" transform="translate(42,17)"/>
<path d="M0 0 C1.65 0.33 3.3 0.66 5 1 C4.360625 1.28875 3.72125 1.5775 3.0625 1.875 C0.84793921 2.82823451 0.84793921 2.82823451 0 5 C-0.66 5.66 -1.32 6.32 -2 7 C-2.99 6.67 -3.98 6.34 -5 6 C-3.35 4.02 -1.7 2.04 0 0 Z " fill="#805044" transform="translate(26,9)"/>
<path d="M0 0 C0.33 0 0.66 0 1 0 C1 4.29 1 8.58 1 13 C1.99 12.67 2.98 12.34 4 12 C4 12.66 4 13.32 4 14 C2.35 14.66 0.7 15.32 -1 16 C-0.67 10.72 -0.34 5.44 0 0 Z " fill="#1F2D45" transform="translate(31,46)"/>
<path d="M0 0 C0.33 -0.66 0.66 -1.32 1 -2 C1.33 -1.34 1.66 -0.68 2 0 C1.01 1.32 0.02 2.64 -1 4 C-1.66 3.67 -2.32 3.34 -3 3 C-2.67 2.34 -2.34 1.68 -2 1 C-3.32 1.33 -4.64 1.66 -6 2 C-6 1.34 -6 0.68 -6 0 C-6.66 -0.33 -7.32 -0.66 -8 -1 C-4.37673261 -2.2077558 -3.35853631 -1.54311128 0 0 Z " fill="#986A5E" transform="translate(44,32)"/>
<path d="M0 0 C1.98 0 3.96 0 6 0 C6 1.32 6 2.64 6 4 C4.02 4 2.04 4 0 4 C0 2.68 0 1.36 0 0 Z " fill="#1F2235" transform="translate(33,26)"/>
<path d="M0 0 C1.65 0 3.3 0 5 0 C4.1875 2.4375 4.1875 2.4375 3 5 C2.01 5.33 1.02 5.66 0 6 C0 4.02 0 2.04 0 0 Z " fill="#292436" transform="translate(33,32)"/>
<path d="M0 0 C1.32 0 2.64 0 4 0 C4.33 1.65 4.66 3.3 5 5 C3.68 5.33 2.36 5.66 1 6 C0.67 4.02 0.34 2.04 0 0 Z " fill="#2E2736" transform="translate(18,26)"/>
<path d="M0 0 C0.66 0 1.32 0 2 0 C2 0.66 2 1.32 2 2 C2.66 2 3.32 2 4 2 C4.33 3.32 4.66 4.64 5 6 C3.35 6 1.7 6 0 6 C0 4.02 0 2.04 0 0 Z " fill="#2F232F" transform="translate(33,11)"/>
<path d="M0 0 C1.98 0 3.96 0 6 0 C4.37660195 1.70884005 2.70680947 3.37446717 1 5 C0.34 5 -0.32 5 -1 5 C-1.33 5.99 -1.66 6.98 -2 8 C-2.33 7.34 -2.66 6.68 -3 6 C-2.67 5.34 -2.34 4.68 -2 4 C-1.34 4 -0.68 4 0 4 C0 2.68 0 1.36 0 0 Z " fill="#25263A" transform="translate(20,9)"/>
<path d="M0 0 C0.99 0.33 1.98 0.66 3 1 C1.35 2.65 -0.3 4.3 -2 6 C-2.33 4.68 -2.66 3.36 -3 2 C-2.01 2 -1.02 2 0 2 C0 1.34 0 0.68 0 0 Z " fill="#344969" transform="translate(47,63)"/>
<path d="M0 0 C1.65 0 3.3 0 5 0 C4.34 1.98 3.68 3.96 3 6 C0.8614515 3.8614515 0.57344937 2.86724686 0 0 Z " fill="#3A4A65" transform="translate(53,53)"/>
</svg>
